# xmcd
#
# Track frame offsets: 
#        150
#        12253
#        24439
#        35574
#        47221
#        60777
#        73692
#        85586
#        97888
#        107829
#        118546
#        131990
#        145667
#        158205
#        171430
#        182917
#
# Disc length: 2588 seconds
#
# Revision: 1
# Processed by: cddbd v1.5.2PL0 Copyright (c) Steve Scherf et al.
# Submitted via: ExactAudioCopyFreeDBPlugin 1.0
#
DISCID=d30a1a10
DTITLE=Various Artist - That's Country
DYEAR=2008
DGENRE=Country
TTITLE0=Red Ingle - Cigareets, Whusky And Wild, Wild Women
TTITLE1=Johnny Cash - I Walk The Line
TTITLE2=Jim Reeves - Penny Candy
TTITLE3=Tex Ritter - Have I Told You Lately That I Love You
TTITLE4=Rosalie Allen - I Want To Be A Cowboy's Sweetheart
TTITLE5=Ernest Tubb - Have You Ever Been Lonely
TTITLE6=Hank Williams - You Win Again
TTITLE7=Anita Carter and Hank Snow - Bluebird Island
TTITLE8=Johnny Cash - Get Rhythm
TTITLE9=Hank Thompson - Whoa Sailor
TTITLE10=The Delmore Brothers - Pan-American Boogie
TTITLE11=Slim Whiteman - Indian Love Call
TTITLE12=Marty Robbins - I Couldn't Keep From Crying
TTITLE13=Tex Williams - Life Gets Tee-Jus Don't It
TTITLE14=Jim Reeves - Mexican Joe
TTITLE15=Hank Snow - Now And Then, There's A Fool Such As I
EXTD=
EXTT0=
EXTT1=
EXTT2=
EXTT3=
EXTT4=
EXTT5=
EXTT6=
EXTT7=
EXTT8=
EXTT9=
EXTT10=
EXTT11=
EXTT12=
EXTT13=
EXTT14=
EXTT15=
PLAYORDER=
